<mxfile host="app.diagrams.net" modified="2023-05-09T17:44:28.502Z" agent="Mozilla/5.0 (Windows NT 10.0; Win64; x64; rv:109.0) Gecko/20100101 Firefox/112.0" etag="sD5gqm6oiWEUxKLQ-w2m" version="21.2.9" type="device">
  <diagram name="Page-1" id="2YBvvXClWsGukQMizWep">
    <mxGraphModel dx="2255" dy="739" grid="0" gridSize="10" guides="1" tooltips="1" connect="1" arrows="1" fold="1" page="1" pageScale="1" pageWidth="850" pageHeight="1100" math="0" shadow="0">
      <root>
        <mxCell id="0" />
        <mxCell id="1" parent="0" />
        <mxCell id="u2e4Fh3PCJbd1myzlny6-13" value="&amp;nbsp;&amp;nbsp;&amp;nbsp;&amp;nbsp; Σελίδα με όλες τις επιλογές" style="shape=umlLifeline;perimeter=lifelinePerimeter;whiteSpace=wrap;html=1;container=1;dropTarget=0;collapsible=0;recursiveResize=0;outlineConnect=0;portConstraint=eastwest;newEdgeStyle={&quot;edgeStyle&quot;:&quot;elbowEdgeStyle&quot;,&quot;elbow&quot;:&quot;vertical&quot;,&quot;curved&quot;:0,&quot;rounded&quot;:0};participant=umlBoundary;size=80;" parent="1" vertex="1">
          <mxGeometry x="-325" y="225" width="95" height="675" as="geometry" />
        </mxCell>
        <mxCell id="0ohFFgSHv34_NlzhD2Fq-66" value="" style="html=1;points=[];perimeter=orthogonalPerimeter;outlineConnect=0;targetShapes=umlLifeline;portConstraint=eastwest;newEdgeStyle={&quot;edgeStyle&quot;:&quot;elbowEdgeStyle&quot;,&quot;elbow&quot;:&quot;vertical&quot;,&quot;curved&quot;:0,&quot;rounded&quot;:0};fillColor=none;" vertex="1" parent="u2e4Fh3PCJbd1myzlny6-13">
          <mxGeometry x="42.5" y="125" width="10" height="35" as="geometry" />
        </mxCell>
        <mxCell id="u2e4Fh3PCJbd1myzlny6-16" value="Λίστα εισαγωγής λεπτομερειων" style="shape=umlLifeline;perimeter=lifelinePerimeter;whiteSpace=wrap;html=1;container=1;dropTarget=0;collapsible=0;recursiveResize=0;outlineConnect=0;portConstraint=eastwest;newEdgeStyle={&quot;edgeStyle&quot;:&quot;elbowEdgeStyle&quot;,&quot;elbow&quot;:&quot;vertical&quot;,&quot;curved&quot;:0,&quot;rounded&quot;:0};participant=umlBoundary;size=80;" parent="1" vertex="1">
          <mxGeometry x="-190" y="220" width="95" height="680" as="geometry" />
        </mxCell>
        <mxCell id="u2e4Fh3PCJbd1myzlny6-18" value="Λίστα κόστος AP" style="shape=umlLifeline;perimeter=lifelinePerimeter;whiteSpace=wrap;html=1;container=1;dropTarget=0;collapsible=0;recursiveResize=0;outlineConnect=0;portConstraint=eastwest;newEdgeStyle={&quot;edgeStyle&quot;:&quot;elbowEdgeStyle&quot;,&quot;elbow&quot;:&quot;vertical&quot;,&quot;curved&quot;:0,&quot;rounded&quot;:0};participant=umlBoundary;size=80;" parent="1" vertex="1">
          <mxGeometry x="20" y="220" width="95" height="680" as="geometry" />
        </mxCell>
        <mxCell id="0ohFFgSHv34_NlzhD2Fq-69" value="" style="html=1;points=[];perimeter=orthogonalPerimeter;outlineConnect=0;targetShapes=umlLifeline;portConstraint=eastwest;newEdgeStyle={&quot;edgeStyle&quot;:&quot;elbowEdgeStyle&quot;,&quot;elbow&quot;:&quot;vertical&quot;,&quot;curved&quot;:0,&quot;rounded&quot;:0};fillColor=none;" vertex="1" parent="u2e4Fh3PCJbd1myzlny6-18">
          <mxGeometry x="42.5" y="474" width="10" height="18" as="geometry" />
        </mxCell>
        <mxCell id="u2e4Fh3PCJbd1myzlny6-19" value="Τελική λίστα" style="shape=umlLifeline;perimeter=lifelinePerimeter;whiteSpace=wrap;html=1;container=1;dropTarget=0;collapsible=0;recursiveResize=0;outlineConnect=0;portConstraint=eastwest;newEdgeStyle={&quot;edgeStyle&quot;:&quot;elbowEdgeStyle&quot;,&quot;elbow&quot;:&quot;vertical&quot;,&quot;curved&quot;:0,&quot;rounded&quot;:0};participant=umlBoundary;size=80;" parent="1" vertex="1">
          <mxGeometry x="130" y="222.5" width="95" height="677.5" as="geometry" />
        </mxCell>
        <mxCell id="0ohFFgSHv34_NlzhD2Fq-80" value="" style="html=1;points=[];perimeter=orthogonalPerimeter;outlineConnect=0;targetShapes=umlLifeline;portConstraint=eastwest;newEdgeStyle={&quot;edgeStyle&quot;:&quot;elbowEdgeStyle&quot;,&quot;elbow&quot;:&quot;vertical&quot;,&quot;curved&quot;:0,&quot;rounded&quot;:0};fillColor=none;" vertex="1" parent="u2e4Fh3PCJbd1myzlny6-19">
          <mxGeometry x="42.5" y="494.5" width="10" height="153.5" as="geometry" />
        </mxCell>
        <mxCell id="u2e4Fh3PCJbd1myzlny6-20" value="PoP-Up επιτυχίας" style="shape=umlLifeline;perimeter=lifelinePerimeter;whiteSpace=wrap;html=1;container=1;dropTarget=0;collapsible=0;recursiveResize=0;outlineConnect=0;portConstraint=eastwest;newEdgeStyle={&quot;edgeStyle&quot;:&quot;elbowEdgeStyle&quot;,&quot;elbow&quot;:&quot;vertical&quot;,&quot;curved&quot;:0,&quot;rounded&quot;:0};participant=umlBoundary;size=80;" parent="1" vertex="1">
          <mxGeometry x="240" y="222.5" width="95" height="677.5" as="geometry" />
        </mxCell>
        <mxCell id="u2e4Fh3PCJbd1myzlny6-21" value="Κανόνες" style="shape=umlLifeline;perimeter=lifelinePerimeter;whiteSpace=wrap;html=1;container=1;dropTarget=0;collapsible=0;recursiveResize=0;outlineConnect=0;portConstraint=eastwest;newEdgeStyle={&quot;edgeStyle&quot;:&quot;elbowEdgeStyle&quot;,&quot;elbow&quot;:&quot;vertical&quot;,&quot;curved&quot;:0,&quot;rounded&quot;:0};participant=umlEntity;size=80;" parent="1" vertex="1">
          <mxGeometry x="-80" y="220" width="90" height="680" as="geometry" />
        </mxCell>
        <mxCell id="0ohFFgSHv34_NlzhD2Fq-77" value="" style="html=1;points=[];perimeter=orthogonalPerimeter;outlineConnect=0;targetShapes=umlLifeline;portConstraint=eastwest;newEdgeStyle={&quot;edgeStyle&quot;:&quot;elbowEdgeStyle&quot;,&quot;elbow&quot;:&quot;vertical&quot;,&quot;curved&quot;:0,&quot;rounded&quot;:0};" vertex="1" parent="u2e4Fh3PCJbd1myzlny6-21">
          <mxGeometry x="40" y="427" width="10" height="7" as="geometry" />
        </mxCell>
        <mxCell id="u2e4Fh3PCJbd1myzlny6-22" value="&lt;div&gt;όλα τα πεδία υποχρεωτικά&lt;/div&gt;&lt;div&gt;PoP-Up&lt;/div&gt;" style="shape=umlLifeline;perimeter=lifelinePerimeter;whiteSpace=wrap;html=1;container=1;dropTarget=0;collapsible=0;recursiveResize=0;outlineConnect=0;portConstraint=eastwest;newEdgeStyle={&quot;edgeStyle&quot;:&quot;elbowEdgeStyle&quot;,&quot;elbow&quot;:&quot;vertical&quot;,&quot;curved&quot;:0,&quot;rounded&quot;:0};participant=umlBoundary;size=80;" parent="1" vertex="1">
          <mxGeometry x="350" y="220" width="95" height="690" as="geometry" />
        </mxCell>
        <mxCell id="u2e4Fh3PCJbd1myzlny6-23" value="Λανθασμένη μορφή σε πεδίο PoP-Up" style="shape=umlLifeline;perimeter=lifelinePerimeter;whiteSpace=wrap;html=1;container=1;dropTarget=0;collapsible=0;recursiveResize=0;outlineConnect=0;portConstraint=eastwest;newEdgeStyle={&quot;edgeStyle&quot;:&quot;elbowEdgeStyle&quot;,&quot;elbow&quot;:&quot;vertical&quot;,&quot;curved&quot;:0,&quot;rounded&quot;:0};participant=umlBoundary;size=80;" parent="1" vertex="1">
          <mxGeometry x="560" y="220" width="95" height="680" as="geometry" />
        </mxCell>
        <mxCell id="0ohFFgSHv34_NlzhD2Fq-86" value="" style="html=1;points=[];perimeter=orthogonalPerimeter;outlineConnect=0;targetShapes=umlLifeline;portConstraint=eastwest;newEdgeStyle={&quot;edgeStyle&quot;:&quot;elbowEdgeStyle&quot;,&quot;elbow&quot;:&quot;vertical&quot;,&quot;curved&quot;:0,&quot;rounded&quot;:0};fillColor=none;" vertex="1" parent="u2e4Fh3PCJbd1myzlny6-23">
          <mxGeometry x="42.5" y="342" width="10" height="18" as="geometry" />
        </mxCell>
        <mxCell id="u2e4Fh3PCJbd1myzlny6-25" value="" style="shape=umlLifeline;perimeter=lifelinePerimeter;whiteSpace=wrap;html=1;container=1;dropTarget=0;collapsible=0;recursiveResize=0;outlineConnect=0;portConstraint=eastwest;newEdgeStyle={&quot;edgeStyle&quot;:&quot;elbowEdgeStyle&quot;,&quot;elbow&quot;:&quot;vertical&quot;,&quot;curved&quot;:0,&quot;rounded&quot;:0};participant=umlActor;size=50;" parent="1" vertex="1">
          <mxGeometry x="-530" y="230" width="40" height="670" as="geometry" />
        </mxCell>
        <mxCell id="0ohFFgSHv34_NlzhD2Fq-62" value="" style="html=1;points=[];perimeter=orthogonalPerimeter;outlineConnect=0;targetShapes=umlLifeline;portConstraint=eastwest;newEdgeStyle={&quot;edgeStyle&quot;:&quot;elbowEdgeStyle&quot;,&quot;elbow&quot;:&quot;vertical&quot;,&quot;curved&quot;:0,&quot;rounded&quot;:0};" vertex="1" parent="u2e4Fh3PCJbd1myzlny6-25">
          <mxGeometry x="15" y="60" width="10" height="560" as="geometry" />
        </mxCell>
        <mxCell id="u2e4Fh3PCJbd1myzlny6-26" value="Admin" style="text;html=1;align=center;verticalAlign=middle;resizable=0;points=[];autosize=1;strokeColor=none;fillColor=none;" parent="1" vertex="1">
          <mxGeometry x="-540" y="270" width="60" height="30" as="geometry" />
        </mxCell>
        <mxCell id="u2e4Fh3PCJbd1myzlny6-27" value="" style="endArrow=classic;html=1;rounded=0;" parent="1" target="0ohFFgSHv34_NlzhD2Fq-2" edge="1">
          <mxGeometry width="50" height="50" relative="1" as="geometry">
            <mxPoint x="-510" y="330" as="sourcePoint" />
            <mxPoint x="-370" y="330" as="targetPoint" />
          </mxGeometry>
        </mxCell>
        <mxCell id="u2e4Fh3PCJbd1myzlny6-32" value="Press_Tournament()" style="text;html=1;strokeColor=none;fillColor=none;align=center;verticalAlign=middle;whiteSpace=wrap;rounded=0;" parent="1" vertex="1">
          <mxGeometry x="-485" y="300" width="60" height="30" as="geometry" />
        </mxCell>
        <mxCell id="u2e4Fh3PCJbd1myzlny6-33" value="" style="endArrow=classic;html=1;rounded=0;" parent="1" edge="1">
          <mxGeometry width="50" height="50" relative="1" as="geometry">
            <mxPoint x="-400" y="349" as="sourcePoint" />
            <mxPoint x="-280" y="349.5" as="targetPoint" />
          </mxGeometry>
        </mxCell>
        <mxCell id="u2e4Fh3PCJbd1myzlny6-34" value="display()" style="text;html=1;align=center;verticalAlign=middle;resizable=0;points=[];autosize=1;strokeColor=none;fillColor=none;" parent="1" vertex="1">
          <mxGeometry x="-380" y="320" width="70" height="30" as="geometry" />
        </mxCell>
        <mxCell id="0ohFFgSHv34_NlzhD2Fq-1" value="" style="endArrow=classic;html=1;rounded=0;" edge="1" parent="1" target="u2e4Fh3PCJbd1myzlny6-16">
          <mxGeometry width="50" height="50" relative="1" as="geometry">
            <mxPoint x="-280" y="380" as="sourcePoint" />
            <mxPoint x="-160" y="380.5" as="targetPoint" />
          </mxGeometry>
        </mxCell>
        <mxCell id="0ohFFgSHv34_NlzhD2Fq-2" value="Διεπαφή τουρνουά" style="shape=umlLifeline;perimeter=lifelinePerimeter;whiteSpace=wrap;html=1;container=1;dropTarget=0;collapsible=0;recursiveResize=0;outlineConnect=0;portConstraint=eastwest;newEdgeStyle={&quot;edgeStyle&quot;:&quot;elbowEdgeStyle&quot;,&quot;elbow&quot;:&quot;vertical&quot;,&quot;curved&quot;:0,&quot;rounded&quot;:0};participant=umlBoundary;size=80;" vertex="1" parent="1">
          <mxGeometry x="-450" y="225" width="95" height="680" as="geometry" />
        </mxCell>
        <mxCell id="0ohFFgSHv34_NlzhD2Fq-64" value="" style="html=1;points=[];perimeter=orthogonalPerimeter;outlineConnect=0;targetShapes=umlLifeline;portConstraint=eastwest;newEdgeStyle={&quot;edgeStyle&quot;:&quot;elbowEdgeStyle&quot;,&quot;elbow&quot;:&quot;vertical&quot;,&quot;curved&quot;:0,&quot;rounded&quot;:0};fillColor=none;strokeColor=default;" vertex="1" parent="0ohFFgSHv34_NlzhD2Fq-2">
          <mxGeometry x="42.5" y="105" width="10" height="575" as="geometry" />
        </mxCell>
        <mxCell id="0ohFFgSHv34_NlzhD2Fq-3" value="display()" style="text;html=1;align=center;verticalAlign=middle;resizable=0;points=[];autosize=1;strokeColor=none;fillColor=none;" vertex="1" parent="1">
          <mxGeometry x="-250" y="360" width="70" height="30" as="geometry" />
        </mxCell>
        <mxCell id="0ohFFgSHv34_NlzhD2Fq-17" value="alternative" style="shape=umlFrame;whiteSpace=wrap;html=1;pointerEvents=0;" vertex="1" parent="1">
          <mxGeometry x="-510" y="400" width="1120" height="220" as="geometry" />
        </mxCell>
        <mxCell id="0ohFFgSHv34_NlzhD2Fq-19" value="" style="endArrow=classic;html=1;rounded=0;" edge="1" parent="1" source="0ohFFgSHv34_NlzhD2Fq-83">
          <mxGeometry width="50" height="50" relative="1" as="geometry">
            <mxPoint x="-140" y="430" as="sourcePoint" />
            <mxPoint x="400" y="430" as="targetPoint" />
            <Array as="points" />
          </mxGeometry>
        </mxCell>
        <mxCell id="0ohFFgSHv34_NlzhD2Fq-20" value="check_displayt()" style="text;html=1;align=center;verticalAlign=middle;resizable=0;points=[];autosize=1;strokeColor=none;fillColor=none;" vertex="1" parent="1">
          <mxGeometry x="50" y="410" width="110" height="30" as="geometry" />
        </mxCell>
        <mxCell id="0ohFFgSHv34_NlzhD2Fq-24" value="return()" style="html=1;verticalAlign=bottom;endArrow=block;edgeStyle=elbowEdgeStyle;elbow=vertical;curved=0;rounded=0;" edge="1" parent="1" source="u2e4Fh3PCJbd1myzlny6-22" target="u2e4Fh3PCJbd1myzlny6-16">
          <mxGeometry width="80" relative="1" as="geometry">
            <mxPoint x="530" y="460" as="sourcePoint" />
            <mxPoint x="460" y="460" as="targetPoint" />
            <Array as="points">
              <mxPoint x="160" y="450" />
            </Array>
          </mxGeometry>
        </mxCell>
        <mxCell id="0ohFFgSHv34_NlzhD2Fq-26" value="add_details()" style="html=1;verticalAlign=bottom;endArrow=block;edgeStyle=elbowEdgeStyle;elbow=vertical;curved=0;rounded=0;" edge="1" parent="1" source="u2e4Fh3PCJbd1myzlny6-25" target="u2e4Fh3PCJbd1myzlny6-16">
          <mxGeometry width="80" relative="1" as="geometry">
            <mxPoint x="-700" y="540" as="sourcePoint" />
            <mxPoint x="-620" y="540" as="targetPoint" />
            <Array as="points">
              <mxPoint x="-247" y="633" />
              <mxPoint x="-305" y="685" />
              <mxPoint x="-220" y="640" />
              <mxPoint x="-300" y="680" />
            </Array>
          </mxGeometry>
        </mxCell>
        <mxCell id="0ohFFgSHv34_NlzhD2Fq-28" value="alt1" style="text;html=1;align=center;verticalAlign=middle;resizable=0;points=[];autosize=1;strokeColor=none;fillColor=none;" vertex="1" parent="1">
          <mxGeometry x="-450" y="400" width="40" height="30" as="geometry" />
        </mxCell>
        <mxCell id="0ohFFgSHv34_NlzhD2Fq-29" value="alt2" style="text;html=1;align=center;verticalAlign=middle;resizable=0;points=[];autosize=1;strokeColor=none;fillColor=none;" vertex="1" parent="1">
          <mxGeometry x="-510" y="468" width="40" height="30" as="geometry" />
        </mxCell>
        <mxCell id="0ohFFgSHv34_NlzhD2Fq-30" value="" style="endArrow=classic;html=1;rounded=0;" edge="1" parent="1" target="0ohFFgSHv34_NlzhD2Fq-31">
          <mxGeometry width="50" height="50" relative="1" as="geometry">
            <mxPoint x="-140" y="498" as="sourcePoint" />
            <mxPoint x="400" y="498" as="targetPoint" />
            <Array as="points">
              <mxPoint x="50" y="498" />
              <mxPoint x="60" y="498" />
            </Array>
          </mxGeometry>
        </mxCell>
        <mxCell id="0ohFFgSHv34_NlzhD2Fq-31" value="&lt;div&gt;Tο τουρνουά υπάρχει ήδη Pop Up&lt;/div&gt;" style="shape=umlLifeline;perimeter=lifelinePerimeter;whiteSpace=wrap;html=1;container=1;dropTarget=0;collapsible=0;recursiveResize=0;outlineConnect=0;portConstraint=eastwest;newEdgeStyle={&quot;edgeStyle&quot;:&quot;elbowEdgeStyle&quot;,&quot;elbow&quot;:&quot;vertical&quot;,&quot;curved&quot;:0,&quot;rounded&quot;:0};participant=umlBoundary;size=80;" vertex="1" parent="1">
          <mxGeometry x="445" y="220" width="95" height="690" as="geometry" />
        </mxCell>
        <mxCell id="0ohFFgSHv34_NlzhD2Fq-85" value="" style="html=1;points=[];perimeter=orthogonalPerimeter;outlineConnect=0;targetShapes=umlLifeline;portConstraint=eastwest;newEdgeStyle={&quot;edgeStyle&quot;:&quot;elbowEdgeStyle&quot;,&quot;elbow&quot;:&quot;vertical&quot;,&quot;curved&quot;:0,&quot;rounded&quot;:0};fillColor=none;" vertex="1" parent="0ohFFgSHv34_NlzhD2Fq-31">
          <mxGeometry x="41" y="272" width="10" height="18" as="geometry" />
        </mxCell>
        <mxCell id="0ohFFgSHv34_NlzhD2Fq-32" value="check_displayt()" style="text;html=1;align=center;verticalAlign=middle;resizable=0;points=[];autosize=1;strokeColor=none;fillColor=none;" vertex="1" parent="1">
          <mxGeometry x="160" y="480" width="110" height="30" as="geometry" />
        </mxCell>
        <mxCell id="0ohFFgSHv34_NlzhD2Fq-33" value="return()" style="html=1;verticalAlign=bottom;endArrow=block;edgeStyle=elbowEdgeStyle;elbow=vertical;curved=0;rounded=0;" edge="1" parent="1" target="u2e4Fh3PCJbd1myzlny6-16">
          <mxGeometry width="80" relative="1" as="geometry">
            <mxPoint x="490" y="520" as="sourcePoint" />
            <mxPoint x="-50" y="520" as="targetPoint" />
            <Array as="points">
              <mxPoint x="253" y="520" />
            </Array>
          </mxGeometry>
        </mxCell>
        <mxCell id="0ohFFgSHv34_NlzhD2Fq-34" value="" style="endArrow=none;dashed=1;html=1;dashPattern=1 3;strokeWidth=2;rounded=0;" edge="1" parent="1" target="0ohFFgSHv34_NlzhD2Fq-31">
          <mxGeometry width="50" height="50" relative="1" as="geometry">
            <mxPoint x="-510" y="470" as="sourcePoint" />
            <mxPoint x="80" y="540" as="targetPoint" />
            <Array as="points">
              <mxPoint x="-10" y="470" />
            </Array>
          </mxGeometry>
        </mxCell>
        <mxCell id="0ohFFgSHv34_NlzhD2Fq-35" value="" style="endArrow=none;dashed=1;html=1;dashPattern=1 3;strokeWidth=2;rounded=0;" edge="1" parent="1">
          <mxGeometry width="50" height="50" relative="1" as="geometry">
            <mxPoint x="-510" y="549" as="sourcePoint" />
            <mxPoint x="492" y="549" as="targetPoint" />
            <Array as="points">
              <mxPoint x="-10" y="549" />
            </Array>
          </mxGeometry>
        </mxCell>
        <mxCell id="0ohFFgSHv34_NlzhD2Fq-36" value="alt2" style="text;html=1;align=center;verticalAlign=middle;resizable=0;points=[];autosize=1;strokeColor=none;fillColor=none;" vertex="1" parent="1">
          <mxGeometry x="-510" y="555" width="40" height="30" as="geometry" />
        </mxCell>
        <mxCell id="0ohFFgSHv34_NlzhD2Fq-37" value="" style="endArrow=classic;html=1;rounded=0;" edge="1" parent="1" target="u2e4Fh3PCJbd1myzlny6-23">
          <mxGeometry width="50" height="50" relative="1" as="geometry">
            <mxPoint x="-138.5" y="569.5" as="sourcePoint" />
            <mxPoint x="493.5" y="569.5" as="targetPoint" />
            <Array as="points">
              <mxPoint x="51.5" y="569.5" />
              <mxPoint x="61.5" y="569.5" />
            </Array>
          </mxGeometry>
        </mxCell>
        <mxCell id="0ohFFgSHv34_NlzhD2Fq-38" value="check_displayt()" style="text;html=1;align=center;verticalAlign=middle;resizable=0;points=[];autosize=1;strokeColor=none;fillColor=none;" vertex="1" parent="1">
          <mxGeometry x="190" y="550" width="110" height="30" as="geometry" />
        </mxCell>
        <mxCell id="0ohFFgSHv34_NlzhD2Fq-39" value="return()" style="html=1;verticalAlign=bottom;endArrow=block;edgeStyle=elbowEdgeStyle;elbow=vertical;curved=0;rounded=0;" edge="1" parent="1" target="u2e4Fh3PCJbd1myzlny6-16">
          <mxGeometry width="80" relative="1" as="geometry">
            <mxPoint x="610" y="585" as="sourcePoint" />
            <mxPoint x="-23" y="585" as="targetPoint" />
            <Array as="points">
              <mxPoint x="373" y="585" />
            </Array>
          </mxGeometry>
        </mxCell>
        <mxCell id="0ohFFgSHv34_NlzhD2Fq-40" value="" style="endArrow=classic;html=1;rounded=0;" edge="1" parent="1" source="u2e4Fh3PCJbd1myzlny6-16" target="u2e4Fh3PCJbd1myzlny6-18">
          <mxGeometry width="50" height="50" relative="1" as="geometry">
            <mxPoint x="-140" y="660" as="sourcePoint" />
            <mxPoint x="-30" y="660" as="targetPoint" />
            <Array as="points">
              <mxPoint x="-72" y="696" />
              <mxPoint x="27" y="696" />
            </Array>
          </mxGeometry>
        </mxCell>
        <mxCell id="0ohFFgSHv34_NlzhD2Fq-41" value="display()" style="text;html=1;align=center;verticalAlign=middle;resizable=0;points=[];autosize=1;strokeColor=none;fillColor=none;" vertex="1" parent="1">
          <mxGeometry x="-60" y="672" width="70" height="30" as="geometry" />
        </mxCell>
        <mxCell id="0ohFFgSHv34_NlzhD2Fq-42" value="press_create()" style="html=1;verticalAlign=bottom;endArrow=block;edgeStyle=elbowEdgeStyle;elbow=vertical;curved=0;rounded=0;" edge="1" parent="1" target="u2e4Fh3PCJbd1myzlny6-18">
          <mxGeometry width="80" relative="1" as="geometry">
            <mxPoint x="-510" y="690" as="sourcePoint" />
            <mxPoint x="-143" y="690" as="targetPoint" />
            <Array as="points">
              <mxPoint x="-10" y="712" />
              <mxPoint x="-120" y="703" />
              <mxPoint x="-220" y="690" />
              <mxPoint x="-300" y="730" />
            </Array>
          </mxGeometry>
        </mxCell>
        <mxCell id="0ohFFgSHv34_NlzhD2Fq-43" value="" style="endArrow=classic;html=1;rounded=0;" edge="1" parent="1">
          <mxGeometry width="50" height="50" relative="1" as="geometry">
            <mxPoint x="70" y="720" as="sourcePoint" />
            <mxPoint x="180" y="720" as="targetPoint" />
          </mxGeometry>
        </mxCell>
        <mxCell id="0ohFFgSHv34_NlzhD2Fq-44" value="display()" style="text;html=1;align=center;verticalAlign=middle;resizable=0;points=[];autosize=1;strokeColor=none;fillColor=none;" vertex="1" parent="1">
          <mxGeometry x="82" y="696" width="70" height="30" as="geometry" />
        </mxCell>
        <mxCell id="0ohFFgSHv34_NlzhD2Fq-45" value="alternative" style="shape=umlFrame;whiteSpace=wrap;html=1;pointerEvents=0;" vertex="1" parent="1">
          <mxGeometry x="-510" y="730" width="1120" height="90" as="geometry" />
        </mxCell>
        <mxCell id="0ohFFgSHv34_NlzhD2Fq-51" value="press_cancel()" style="html=1;verticalAlign=bottom;endArrow=block;edgeStyle=elbowEdgeStyle;elbow=vertical;curved=0;rounded=0;" edge="1" parent="1">
          <mxGeometry width="80" relative="1" as="geometry">
            <mxPoint x="-400" y="770" as="sourcePoint" />
            <mxPoint x="177" y="770" as="targetPoint" />
            <Array as="points">
              <mxPoint x="-110" y="770" />
              <mxPoint x="-190" y="810" />
            </Array>
          </mxGeometry>
        </mxCell>
        <mxCell id="0ohFFgSHv34_NlzhD2Fq-54" value="return()" style="html=1;verticalAlign=bottom;endArrow=block;edgeStyle=elbowEdgeStyle;elbow=vertical;curved=0;rounded=0;" edge="1" parent="1" target="0ohFFgSHv34_NlzhD2Fq-2">
          <mxGeometry width="80" relative="1" as="geometry">
            <mxPoint x="173" y="790" as="sourcePoint" />
            <mxPoint x="-580" y="790" as="targetPoint" />
            <Array as="points">
              <mxPoint x="-64" y="790" />
            </Array>
          </mxGeometry>
        </mxCell>
        <mxCell id="0ohFFgSHv34_NlzhD2Fq-55" value="" style="endArrow=classic;html=1;rounded=0;" edge="1" parent="1" target="u2e4Fh3PCJbd1myzlny6-19">
          <mxGeometry width="50" height="50" relative="1" as="geometry">
            <mxPoint x="-510" y="850" as="sourcePoint" />
            <mxPoint x="-303" y="850" as="targetPoint" />
          </mxGeometry>
        </mxCell>
        <mxCell id="0ohFFgSHv34_NlzhD2Fq-56" value="press_create()" style="text;html=1;align=center;verticalAlign=middle;resizable=0;points=[];autosize=1;strokeColor=none;fillColor=none;" vertex="1" parent="1">
          <mxGeometry x="-160" y="828" width="100" height="30" as="geometry" />
        </mxCell>
        <mxCell id="0ohFFgSHv34_NlzhD2Fq-58" value="display()" style="text;html=1;align=center;verticalAlign=middle;resizable=0;points=[];autosize=1;strokeColor=none;fillColor=none;" vertex="1" parent="1">
          <mxGeometry x="200" y="840" width="70" height="30" as="geometry" />
        </mxCell>
        <mxCell id="0ohFFgSHv34_NlzhD2Fq-61" value="" style="endArrow=classic;html=1;rounded=0;" edge="1" parent="1" target="0ohFFgSHv34_NlzhD2Fq-2">
          <mxGeometry width="50" height="50" relative="1" as="geometry">
            <mxPoint x="285" y="900" as="sourcePoint" />
            <mxPoint x="90" y="900" as="targetPoint" />
          </mxGeometry>
        </mxCell>
        <mxCell id="0ohFFgSHv34_NlzhD2Fq-65" value="" style="endArrow=classic;html=1;rounded=0;" edge="1" parent="1" target="u2e4Fh3PCJbd1myzlny6-13">
          <mxGeometry width="50" height="50" relative="1" as="geometry">
            <mxPoint x="-512.5" y="370" as="sourcePoint" />
            <mxPoint x="-278" y="370" as="targetPoint" />
            <Array as="points">
              <mxPoint x="-322.5" y="370" />
              <mxPoint x="-312.5" y="370" />
            </Array>
          </mxGeometry>
        </mxCell>
        <mxCell id="u2e4Fh3PCJbd1myzlny6-36" value="Press_create()" style="text;html=1;align=center;verticalAlign=middle;resizable=0;points=[];autosize=1;strokeColor=none;fillColor=none;" parent="1" vertex="1">
          <mxGeometry x="-407.5" y="350" width="110" height="30" as="geometry" />
        </mxCell>
        <mxCell id="0ohFFgSHv34_NlzhD2Fq-68" value="" style="html=1;points=[];perimeter=orthogonalPerimeter;outlineConnect=0;targetShapes=umlLifeline;portConstraint=eastwest;newEdgeStyle={&quot;edgeStyle&quot;:&quot;elbowEdgeStyle&quot;,&quot;elbow&quot;:&quot;vertical&quot;,&quot;curved&quot;:0,&quot;rounded&quot;:0};fillColor=none;" vertex="1" parent="1">
          <mxGeometry x="-147.5" y="380" width="10" height="260" as="geometry" />
        </mxCell>
        <mxCell id="0ohFFgSHv34_NlzhD2Fq-73" value="" style="endArrow=classic;html=1;rounded=0;" edge="1" parent="1" source="0ohFFgSHv34_NlzhD2Fq-77">
          <mxGeometry width="50" height="50" relative="1" as="geometry">
            <mxPoint x="-140" y="650" as="sourcePoint" />
            <mxPoint x="-30" y="650" as="targetPoint" />
          </mxGeometry>
        </mxCell>
        <mxCell id="0ohFFgSHv34_NlzhD2Fq-74" value="display()" style="text;html=1;align=center;verticalAlign=middle;resizable=0;points=[];autosize=1;strokeColor=none;fillColor=none;" vertex="1" parent="1">
          <mxGeometry x="-140" y="620" width="70" height="30" as="geometry" />
        </mxCell>
        <mxCell id="0ohFFgSHv34_NlzhD2Fq-75" value="" style="endArrow=classic;html=1;rounded=0;" edge="1" parent="1" target="u2e4Fh3PCJbd1myzlny6-16">
          <mxGeometry width="50" height="50" relative="1" as="geometry">
            <mxPoint x="-143" y="663" as="sourcePoint" />
            <mxPoint x="-33" y="663" as="targetPoint" />
            <Array as="points">
              <mxPoint x="-90" y="663" />
              <mxPoint x="-90" y="680" />
              <mxPoint x="-117" y="680" />
            </Array>
          </mxGeometry>
        </mxCell>
        <mxCell id="0ohFFgSHv34_NlzhD2Fq-76" value="return()" style="text;html=1;align=center;verticalAlign=middle;resizable=0;points=[];autosize=1;strokeColor=none;fillColor=none;" vertex="1" parent="1">
          <mxGeometry x="-139" y="656" width="58" height="26" as="geometry" />
        </mxCell>
        <mxCell id="0ohFFgSHv34_NlzhD2Fq-78" value="" style="endArrow=classic;html=1;rounded=0;" edge="1" parent="1" target="0ohFFgSHv34_NlzhD2Fq-77">
          <mxGeometry width="50" height="50" relative="1" as="geometry">
            <mxPoint x="-140" y="650" as="sourcePoint" />
            <mxPoint x="-30" y="650" as="targetPoint" />
          </mxGeometry>
        </mxCell>
        <mxCell id="0ohFFgSHv34_NlzhD2Fq-82" value="" style="endArrow=classic;html=1;rounded=0;" edge="1" parent="1" source="0ohFFgSHv34_NlzhD2Fq-87">
          <mxGeometry width="50" height="50" relative="1" as="geometry">
            <mxPoint x="180" y="870" as="sourcePoint" />
            <mxPoint x="285" y="870" as="targetPoint" />
          </mxGeometry>
        </mxCell>
        <mxCell id="0ohFFgSHv34_NlzhD2Fq-84" value="" style="endArrow=classic;html=1;rounded=0;" edge="1" parent="1" target="0ohFFgSHv34_NlzhD2Fq-83">
          <mxGeometry width="50" height="50" relative="1" as="geometry">
            <mxPoint x="-140" y="430" as="sourcePoint" />
            <mxPoint x="400" y="430" as="targetPoint" />
            <Array as="points">
              <mxPoint x="50" y="430" />
              <mxPoint x="60" y="430" />
            </Array>
          </mxGeometry>
        </mxCell>
        <mxCell id="0ohFFgSHv34_NlzhD2Fq-83" value="" style="html=1;points=[];perimeter=orthogonalPerimeter;outlineConnect=0;targetShapes=umlLifeline;portConstraint=eastwest;newEdgeStyle={&quot;edgeStyle&quot;:&quot;elbowEdgeStyle&quot;,&quot;elbow&quot;:&quot;vertical&quot;,&quot;curved&quot;:0,&quot;rounded&quot;:0};fillColor=none;" vertex="1" parent="1">
          <mxGeometry x="392.5" y="422" width="10" height="18" as="geometry" />
        </mxCell>
        <mxCell id="0ohFFgSHv34_NlzhD2Fq-88" value="" style="endArrow=classic;html=1;rounded=0;" edge="1" parent="1" target="0ohFFgSHv34_NlzhD2Fq-87">
          <mxGeometry width="50" height="50" relative="1" as="geometry">
            <mxPoint x="180" y="870" as="sourcePoint" />
            <mxPoint x="285" y="870" as="targetPoint" />
          </mxGeometry>
        </mxCell>
        <mxCell id="0ohFFgSHv34_NlzhD2Fq-87" value="" style="html=1;points=[];perimeter=orthogonalPerimeter;outlineConnect=0;targetShapes=umlLifeline;portConstraint=eastwest;newEdgeStyle={&quot;edgeStyle&quot;:&quot;elbowEdgeStyle&quot;,&quot;elbow&quot;:&quot;vertical&quot;,&quot;curved&quot;:0,&quot;rounded&quot;:0};fillColor=none;" vertex="1" parent="1">
          <mxGeometry x="281" y="861" width="10" height="18" as="geometry" />
        </mxCell>
      </root>
    </mxGraphModel>
  </diagram>
</mxfile>
